HIERARCHY
ROOT root
{
	OFFSET 0.000000 0.000000 0.000000
	CHANNELS 6 Xposition Yposition Zposition Zrotation Yrotation Xrotation
	JOINT lhip
	{
		OFFSET 0.058581 -0.082280 -0.017664
		CHANNELS 3 Zrotation Yrotation Xrotation
		JOINT lknee
		{
			OFFSET 0.043451 -0.386469 0.008037
			CHANNELS 3 Zrotation Yrotation Xrotation
			JOINT lankle
			{
				OFFSET -0.014790 -0.426874 -0.037428
				CHANNELS 3 Zrotation Yrotation Xrotation
				JOINT ltoe
				{
					OFFSET 0.041054 -0.060286 0.122042
					CHANNELS 3 Zrotation Yrotation Xrotation
					End Site
					{
						OFFSET 0.000000 0.000000 0.000000
					}
				}
			}
		}
	}
	JOINT rhip
	{
		OFFSET -0.060310 -0.090513 -0.013543
		CHANNELS 3 Zrotation Yrotation Xrotation
		JOINT rknee
		{
			OFFSET -0.043257 -0.383688 -0.004843
			CHANNELS 3 Zrotation Yrotation Xrotation
			JOINT rankle
			{
				OFFSET 0.019056 -0.420046 -0.034562
				CHANNELS 3 Zrotation Yrotation Xrotation
				JOINT rtoe
				{
					OFFSET -0.034840 -0.062106 0.130323
					CHANNELS 3 Zrotation Yrotation Xrotation
					End Site
					{
						OFFSET 0.000000 0.000000 0.000000
					}
				}
			}
		}
	}
	JOINT lowerback
	{
		OFFSET 0.004439 0.124404 -0.038385
		CHANNELS 3 Zrotation Yrotation Xrotation
		JOINT upperback
		{
			OFFSET 0.004488 0.137956 0.026820
			CHANNELS 3 Zrotation Yrotation Xrotation
			JOINT chest
			{
				OFFSET -0.002265 0.056032 0.002855
				CHANNELS 3 Zrotation Yrotation Xrotation
				JOINT lowerneck
				{
					OFFSET -0.013390 0.211636 -0.033468
					CHANNELS 3 Zrotation Yrotation Xrotation
					JOINT upperneck
					{
						OFFSET 0.010113 0.088937 0.050410
						CHANNELS 3 Zrotation Yrotation Xrotation
						End Site
						{
							OFFSET 0.000000 0.000000 0.000000
						}
					}
				}
				JOINT lclavicle
				{
					OFFSET 0.071702 0.114000 -0.018898
					CHANNELS 3 Zrotation Yrotation Xrotation
					JOINT lshoulder
					{
						OFFSET 0.122921 0.045205 -0.019046
						CHANNELS 3 Zrotation Yrotation Xrotation
						JOINT lelbow
						{
							OFFSET 0.255332 -0.015649 -0.022946
							CHANNELS 3 Zrotation Yrotation Xrotation
							JOINT lwrist
							{
								OFFSET 0.265709 0.012698 -0.007375
								CHANNELS 3 Zrotation Yrotation Xrotation
								End Site
								{
									OFFSET 0.000000 0.000000 0.000000
								}
							}
						}
					}
				}
				JOINT rclavicle
				{
					OFFSET -0.082954 0.112472 -0.023707
					CHANNELS 3 Zrotation Yrotation Xrotation
					JOINT rshoulder
					{
						OFFSET -0.113228 0.046853 -0.008472
						CHANNELS 3 Zrotation Yrotation Xrotation
						JOINT relbow
						{
							OFFSET -0.260127 -0.014369 -0.031269
							CHANNELS 3 Zrotation Yrotation Xrotation
							JOINT rwrist
							{
								OFFSET -0.269108 0.006794 -0.006027
								CHANNELS 3 Zrotation Yrotation Xrotation
								End Site
								{
									OFFSET 0.000000 0.000000 0.000000
								}
							}
						}
					}
				}
			}
		}
	}
}
MOTION
Frames: 7
Frame Time: 0.033333
0.245661 0.245642 0.906956 44.843353 -10.090814 85.518708 -18.006288 -26.304871 -19.071328 -9.891302 -5.173357 43.244345 12.478238 18.501415 -22.011095 0.000000 -0.000000 0.000000 -13.606653 0.724288 -28.986681 -6.155831 -3.369645 69.770035 7.232086 -12.049360 -14.278760 0.000000 -0.000000 0.000000 7.733938 8.493991 17.723135 0.460120 5.487836 24.080120 -8.264803 13.151311 -10.036140 -11.895255 -12.764278 43.035835 8.163637 -9.132299 20.974463 -5.374923 -6.976027 2.517871 -78.474976 -27.481810 48.483061 -73.917303 -68.240560 89.143627 -20.154680 -20.591683 -26.338517 12.613605 17.088755 15.986817 67.107262 15.477862 25.710631 -9.529682 55.624448 16.685624 6.858463 2.275079 4.328057 
0.244792 0.245805 0.906657 44.875071 -10.191644 85.673897 -17.868038 -26.298742 -19.445636 -10.040912 -5.059162 43.390460 12.468325 18.442002 -21.977806 0.000000 -0.000000 0.000000 -13.681724 0.622664 -29.223673 -6.282759 -3.369642 69.842561 7.271785 -11.961134 -14.334642 0.000000 -0.000000 0.000000 7.608221 8.638205 18.183173 0.455575 5.566595 23.708231 -8.214778 13.199087 -9.666816 -11.907598 -12.923701 43.092111 8.486905 -9.183439 20.797606 -5.321534 -6.845844 2.458332 -78.684753 -27.756211 48.857163 -74.521212 -68.313224 89.541204 -18.058814 -20.128819 -27.205407 12.636527 16.762539 15.436404 67.067001 15.360763 25.899600 -7.833481 57.820619 18.416443 4.509376 2.639361 5.928833 
0.243453 0.246021 0.906242 45.038553 -10.369493 85.834760 -17.758052 -26.553123 -19.794899 -10.189586 -5.119874 43.438013 12.598013 18.320098 -21.964112 0.000000 -0.000000 0.000000 -13.861386 0.609895 -29.554318 -6.368251 -3.442107 70.048746 7.327337 -12.034361 -14.271906 0.000000 -0.000000 0.000000 7.319759 8.478201 18.816079 0.238291 5.661012 23.674976 -8.271525 13.354299 -10.021079 -11.757903 -13.172986 43.071609 8.688800 -9.423852 20.856582 -5.104496 -6.707396 2.314486 -78.988674 -27.421246 49.177873 -75.452308 -68.404316 91.003387 -18.165734 -19.871994 -27.207349 12.472264 16.587375 15.358059 67.519145 15.380374 26.152975 -6.868597 60.029710 19.568483 4.886436 2.566102 5.277465 
0.243703 0.246246 0.905469 45.051061 -10.464844 85.969056 -17.787101 -26.685740 -20.094649 -10.041952 -4.871627 43.584997 12.674598 18.173140 -21.998215 0.000000 -0.000000 0.000000 -14.103598 0.367548 -29.855559 -6.402279 -3.483542 70.329616 7.516853 -11.664195 -14.398553 0.000000 -0.000000 0.000000 7.643208 8.563516 19.057458 0.174601 5.592274 23.710871 -8.347274 13.156310 -9.828311 -11.887741 -13.289270 43.206357 8.504603 -9.356807 20.566346 -5.317087 -7.051251 2.407143 -78.494266 -27.184824 48.949346 -77.023159 -68.511804 92.916760 -18.306428 -20.169011 -27.540488 12.321813 17.071699 15.684457 67.831259 15.268191 26.080686 -6.704084 62.346561 19.628793 5.365166 2.426151 4.357623 
0.243079 0.246001 0.904482 45.149443 -10.493534 86.172465 -17.531724 -26.808172 -20.607694 -10.044902 -4.465874 43.788785 12.688414 17.997720 -21.990197 0.000000 -0.000000 0.000000 -14.121817 0.446175 -30.241961 -6.571693 -3.518613 70.627157 7.617831 -11.508292 -14.493437 0.000000 -0.000000 0.000000 7.795107 8.540003 19.108624 0.139003 5.561256 24.009109 -8.475757 12.997347 -9.773152 -11.757962 -13.218420 42.970066 8.652097 -9.624399 20.711816 -5.357277 -7.095279 2.200793 -78.332312 -27.048619 48.936751 -77.500888 -68.670549 93.394726 -18.625002 -20.788423 -27.901151 12.276480 17.307509 15.352465 67.936639 15.187942 26.580870 -5.501108 64.036512 20.946439 6.070588 2.784561 3.916141 
0.242826 0.245714 0.903581 45.225743 -10.758409 86.121413 -17.769550 -26.906163 -20.642465 -10.122458 -4.329854 43.832741 12.951226 18.212897 -21.926983 0.000000 -0.000000 0.000000 -14.319220 0.360109 -30.316330 -6.499869 -3.256867 70.871180 7.562751 -11.473080 -14.571527 0.000000 -0.000000 0.000000 7.685579 8.076081 19.338143 -0.261475 5.348985 24.783401 -8.902630 13.351433 -10.210350 -11.535456 -13.524814 42.242435 8.147904 -9.739014 21.771801 -4.980018 -6.910199 1.778672 -78.364958 -26.973283 49.393928 -78.049665 -68.485348 94.279042 -15.056961 -20.303247 -29.947708 12.420048 17.375953 15.220148 68.082423 15.650872 27.299478 -3.870900 65.383959 22.527398 3.213573 3.114970 4.858803 
0.241469 0.245564 0.902787 45.569969 -10.754015 86.287367 -17.507066 -27.192866 -21.173841 -10.219855 -3.942710 44.028973 13.028556 18.441075 -21.865847 0.000000 -0.000000 0.000000 -14.294496 0.171766 -30.682457 -6.159061 -3.310736 71.102297 7.444442 -11.696370 -14.826350 0.000000 -0.000000 0.000000 7.686657 8.164210 20.195368 -0.268148 5.386033 23.597333 -8.512456 13.287927 -9.694214 -11.918020 -13.750784 42.846703 8.741286 -9.449525 21.001718 -5.052397 -6.945366 1.809433 -78.278122 -26.903561 49.245243 -79.776650 -68.839416 95.711962 -16.183680 -20.280297 -30.657029 12.176420 17.250882 15.760447 68.142827 16.293081 26.979769 -1.529836 67.435780 24.776924 5.385981 2.433253 2.174793 
